# xmcd CD database file
#
# Track frame offsets:
#	150
#	13680
#	17762
#	26577
#	39050
#	52987
#	66580
#	81230
#	93907
#	104320
#
# Disc length: 1540 seconds
#
# Revision: 0
# Processed by: cddbd v1.4PL0 Copyright (c) Steve Scherf et al.
# Submitted via: CDex 1.50
#
DISCID=7206020a
DTITLE=Woody Herman - 125th Street
DYEAR=1986
DGENRE=Jazz
TTITLE0=Sweet Lorraine
TTITLE1=Blues on Parade
TTITLE2=Ain't Misbehavin'
TTITLE3=Somebody Loves You
TTITLE4=Muskrat Ramble
TTITLE5=Exactly Like You
TTITLE6=G.I. Jive
TTITLE7=Apple Honey
TTITLE8=Someday Sweetheart
TTITLE9=1-2-3-4 Woodchopper
EXTD=YEAR: 1986
EXTT0=
EXTT1=
EXTT2=
EXTT3=
EXTT4=
EXTT5=
EXTT6=
EXTT7=
EXTT8=
EXTT9=
PLAYORDER=
